<svg xmlns="http://www.w3.org/2000/svg" width="260" height="260" viewBox="0 0 260 260"><g fill="red"><path d="M130 241.43q-3.772 0-6.383-2.612L33.08 151.474q-1.45-1.16-3.99-3.772t-8.052-9.504q-5.513-6.892-9.866-14.146-4.353-7.255-7.762-17.556Q0 96.196 0 86.474q0-31.92 18.426-49.91Q36.853 18.57 69.353 18.57q8.996 0 18.354 3.12 9.358 3.118 17.41 8.414 8.053 5.296 13.857 9.94 5.803 4.642 11.027 9.865 5.224-5.222 11.027-9.865 5.804-4.643 13.857-9.94 8.052-5.295 17.41-8.414 9.36-3.118 18.354-3.118 32.5 0 50.927 17.99Q260 54.555 260 86.475q0 32.065-33.224 65.29l-90.39 87.054q-2.613 2.612-6.385 2.612z"/></g></svg>